<mxfile host="app.diagrams.net" agent="Mozilla/5.0 (Macintosh; Intel Mac OS X 10_15_7) AppleWebKit/605.1.15 (KHTML, like Gecko) Version/18.1 Safari/605.1.15" version="24.9.0">
  <diagram name="Page-1" id="-H_mtQnk-PTXWXPvYvuk">
    <mxGraphModel dx="1282" dy="1884" grid="1" gridSize="10" guides="1" tooltips="1" connect="1" arrows="1" fold="1" page="1" pageScale="1" pageWidth="1169" pageHeight="827" math="0" shadow="0">
      <root>
        <mxCell id="0" />
        <mxCell id="1" parent="0" />
        <mxCell id="z0u4Ed4zm8lamCGDg6do-19" style="edgeStyle=orthogonalEdgeStyle;rounded=0;orthogonalLoop=1;jettySize=auto;html=1;exitX=0.5;exitY=1;exitDx=0;exitDy=0;entryX=0.5;entryY=0;entryDx=0;entryDy=0;strokeColor=#33FF99;" parent="1" source="z0u4Ed4zm8lamCGDg6do-4" target="z0u4Ed4zm8lamCGDg6do-6" edge="1">
          <mxGeometry relative="1" as="geometry" />
        </mxCell>
        <mxCell id="z0u4Ed4zm8lamCGDg6do-24" style="edgeStyle=orthogonalEdgeStyle;rounded=0;orthogonalLoop=1;jettySize=auto;html=1;exitX=0.75;exitY=1;exitDx=0;exitDy=0;entryX=0.25;entryY=0;entryDx=0;entryDy=0;strokeColor=#33FF99;" parent="1" source="z0u4Ed4zm8lamCGDg6do-4" target="z0u4Ed4zm8lamCGDg6do-15" edge="1">
          <mxGeometry relative="1" as="geometry" />
        </mxCell>
        <mxCell id="z0u4Ed4zm8lamCGDg6do-4" value="Роутер: mongos_router" style="rounded=1;whiteSpace=wrap;html=1;" parent="1" vertex="1">
          <mxGeometry x="440" y="310" width="120" height="30" as="geometry" />
        </mxCell>
        <mxCell id="z0u4Ed4zm8lamCGDg6do-6" value="Конфигурационный сервер: configSrv" style="rounded=1;whiteSpace=wrap;html=1;fillColor=#FFCCCC;" parent="1" vertex="1">
          <mxGeometry x="440" y="578" width="120" height="30" as="geometry" />
        </mxCell>
        <mxCell id="z0u4Ed4zm8lamCGDg6do-11" value="" style="group" parent="1" vertex="1" connectable="0">
          <mxGeometry x="240" y="540" width="160" height="160" as="geometry" />
        </mxCell>
        <mxCell id="z0u4Ed4zm8lamCGDg6do-8" value="" style="whiteSpace=wrap;html=1;aspect=fixed;" parent="z0u4Ed4zm8lamCGDg6do-11" vertex="1">
          <mxGeometry width="160" height="160" as="geometry" />
        </mxCell>
        <mxCell id="zA23MoTUsTF4_91t8viU-2" value="MongoDB" style="shape=cylinder3;whiteSpace=wrap;html=1;boundedLbl=1;backgroundOutline=1;size=19.85714285714306;" parent="z0u4Ed4zm8lamCGDg6do-11" vertex="1">
          <mxGeometry x="50" y="40" width="60" height="80" as="geometry" />
        </mxCell>
        <mxCell id="z0u4Ed4zm8lamCGDg6do-9" value="Шард 1: shard1" style="text;html=1;align=center;verticalAlign=middle;whiteSpace=wrap;rounded=0;" parent="z0u4Ed4zm8lamCGDg6do-11" vertex="1">
          <mxGeometry width="160" height="40" as="geometry" />
        </mxCell>
        <mxCell id="GxCfe2Dk_-GDrZyA76Z_-1" value="MongoDB" style="shape=cylinder3;whiteSpace=wrap;html=1;boundedLbl=1;backgroundOutline=1;size=19.85714285714306;" parent="z0u4Ed4zm8lamCGDg6do-11" vertex="1">
          <mxGeometry x="90" y="60" width="60" height="80" as="geometry" />
        </mxCell>
        <mxCell id="GxCfe2Dk_-GDrZyA76Z_-2" value="MongoDB" style="shape=cylinder3;whiteSpace=wrap;html=1;boundedLbl=1;backgroundOutline=1;size=19.85714285714306;" parent="z0u4Ed4zm8lamCGDg6do-11" vertex="1">
          <mxGeometry x="10" y="60" width="60" height="80" as="geometry" />
        </mxCell>
        <mxCell id="z0u4Ed4zm8lamCGDg6do-12" value="" style="group" parent="1" vertex="1" connectable="0">
          <mxGeometry x="600" y="540" width="160" height="160" as="geometry" />
        </mxCell>
        <mxCell id="z0u4Ed4zm8lamCGDg6do-13" value="" style="whiteSpace=wrap;html=1;aspect=fixed;" parent="z0u4Ed4zm8lamCGDg6do-12" vertex="1">
          <mxGeometry width="160" height="160" as="geometry" />
        </mxCell>
        <mxCell id="z0u4Ed4zm8lamCGDg6do-15" value="Шард 2: shard2" style="text;html=1;align=center;verticalAlign=middle;whiteSpace=wrap;rounded=0;" parent="z0u4Ed4zm8lamCGDg6do-12" vertex="1">
          <mxGeometry width="160" height="40" as="geometry" />
        </mxCell>
        <mxCell id="GxCfe2Dk_-GDrZyA76Z_-3" value="MongoDB" style="shape=cylinder3;whiteSpace=wrap;html=1;boundedLbl=1;backgroundOutline=1;size=19.85714285714306;" parent="z0u4Ed4zm8lamCGDg6do-12" vertex="1">
          <mxGeometry x="50" y="40" width="60" height="80" as="geometry" />
        </mxCell>
        <mxCell id="GxCfe2Dk_-GDrZyA76Z_-4" value="MongoDB" style="shape=cylinder3;whiteSpace=wrap;html=1;boundedLbl=1;backgroundOutline=1;size=19.85714285714306;" parent="z0u4Ed4zm8lamCGDg6do-12" vertex="1">
          <mxGeometry x="90" y="60" width="60" height="80" as="geometry" />
        </mxCell>
        <mxCell id="GxCfe2Dk_-GDrZyA76Z_-5" value="MongoDB" style="shape=cylinder3;whiteSpace=wrap;html=1;boundedLbl=1;backgroundOutline=1;size=19.85714285714306;" parent="z0u4Ed4zm8lamCGDg6do-12" vertex="1">
          <mxGeometry x="10" y="60" width="60" height="80" as="geometry" />
        </mxCell>
        <mxCell id="z0u4Ed4zm8lamCGDg6do-17" value="" style="group" parent="1" vertex="1" connectable="0">
          <mxGeometry x="440" y="160" width="120" height="90" as="geometry" />
        </mxCell>
        <mxCell id="zA23MoTUsTF4_91t8viU-3" value="pymongo-api" style="rounded=1;whiteSpace=wrap;html=1;fillColor=#66B2FF;" parent="z0u4Ed4zm8lamCGDg6do-17" vertex="1">
          <mxGeometry width="120" height="90" as="geometry" />
        </mxCell>
        <mxCell id="z0u4Ed4zm8lamCGDg6do-2" value="Драйвер" style="rounded=1;whiteSpace=wrap;html=1;" parent="z0u4Ed4zm8lamCGDg6do-17" vertex="1">
          <mxGeometry y="60" width="120" height="30" as="geometry" />
        </mxCell>
        <mxCell id="z0u4Ed4zm8lamCGDg6do-21" style="edgeStyle=orthogonalEdgeStyle;rounded=0;orthogonalLoop=1;jettySize=auto;html=1;exitX=1;exitY=0.5;exitDx=0;exitDy=0;entryX=0;entryY=0.75;entryDx=0;entryDy=0;" parent="1" source="z0u4Ed4zm8lamCGDg6do-8" target="z0u4Ed4zm8lamCGDg6do-6" edge="1">
          <mxGeometry relative="1" as="geometry" />
        </mxCell>
        <mxCell id="z0u4Ed4zm8lamCGDg6do-22" style="edgeStyle=orthogonalEdgeStyle;rounded=0;orthogonalLoop=1;jettySize=auto;html=1;exitX=0;exitY=0.5;exitDx=0;exitDy=0;entryX=1;entryY=0.75;entryDx=0;entryDy=0;" parent="1" source="z0u4Ed4zm8lamCGDg6do-13" target="z0u4Ed4zm8lamCGDg6do-6" edge="1">
          <mxGeometry relative="1" as="geometry" />
        </mxCell>
        <mxCell id="z0u4Ed4zm8lamCGDg6do-23" style="edgeStyle=orthogonalEdgeStyle;rounded=0;orthogonalLoop=1;jettySize=auto;html=1;exitX=0.25;exitY=1;exitDx=0;exitDy=0;entryX=0.75;entryY=0;entryDx=0;entryDy=0;strokeColor=#33FF99;" parent="1" source="z0u4Ed4zm8lamCGDg6do-4" target="z0u4Ed4zm8lamCGDg6do-9" edge="1">
          <mxGeometry relative="1" as="geometry" />
        </mxCell>
        <mxCell id="w7AsBhVoFl4Xi_suDUbh-3" value="" style="group" parent="1" vertex="1" connectable="0">
          <mxGeometry x="350" y="300" width="72.5" height="57.170000000000016" as="geometry" />
        </mxCell>
        <mxCell id="w7AsBhVoFl4Xi_suDUbh-1" value="" style="points=[];aspect=fixed;html=1;align=center;shadow=0;dashed=0;fillColor=#FF6A00;strokeColor=none;shape=mxgraph.alibaba_cloud.redis_kvstore;" parent="w7AsBhVoFl4Xi_suDUbh-3" vertex="1">
          <mxGeometry width="72.5" height="57.17" as="geometry" />
        </mxCell>
        <mxCell id="w7AsBhVoFl4Xi_suDUbh-2" value="Redis" style="text;html=1;align=center;verticalAlign=middle;whiteSpace=wrap;rounded=0;" parent="w7AsBhVoFl4Xi_suDUbh-3" vertex="1">
          <mxGeometry x="6.25" width="60" height="30" as="geometry" />
        </mxCell>
        <mxCell id="QXobtDgoVljrmMvmmqzc-1" value="" style="group;fontStyle=0" vertex="1" connectable="0" parent="1">
          <mxGeometry x="450" y="170" width="120" height="90" as="geometry" />
        </mxCell>
        <mxCell id="QXobtDgoVljrmMvmmqzc-2" value="pymongo-api" style="rounded=1;whiteSpace=wrap;html=1;fillColor=#66B2FF;" vertex="1" parent="QXobtDgoVljrmMvmmqzc-1">
          <mxGeometry width="120" height="90" as="geometry" />
        </mxCell>
        <mxCell id="QXobtDgoVljrmMvmmqzc-3" value="Драйвер" style="rounded=1;whiteSpace=wrap;html=1;" vertex="1" parent="QXobtDgoVljrmMvmmqzc-1">
          <mxGeometry y="60" width="120" height="30" as="geometry" />
        </mxCell>
        <mxCell id="QXobtDgoVljrmMvmmqzc-4" value="" style="group;fontStyle=1" vertex="1" connectable="0" parent="1">
          <mxGeometry x="460" y="180" width="120" height="90" as="geometry" />
        </mxCell>
        <mxCell id="QXobtDgoVljrmMvmmqzc-5" value="pymongo-api" style="rounded=1;whiteSpace=wrap;html=1;fillColor=#66B2FF;" vertex="1" parent="QXobtDgoVljrmMvmmqzc-4">
          <mxGeometry width="120" height="90" as="geometry" />
        </mxCell>
        <mxCell id="QXobtDgoVljrmMvmmqzc-6" value="Драйвер" style="rounded=1;whiteSpace=wrap;html=1;" vertex="1" parent="QXobtDgoVljrmMvmmqzc-4">
          <mxGeometry y="60" width="120" height="30" as="geometry" />
        </mxCell>
        <mxCell id="QXobtDgoVljrmMvmmqzc-7" style="edgeStyle=orthogonalEdgeStyle;rounded=0;orthogonalLoop=1;jettySize=auto;html=1;exitX=0;exitY=0.5;exitDx=0;exitDy=0;entryX=0.5;entryY=0;entryDx=0;entryDy=0;" edge="1" parent="1" source="zA23MoTUsTF4_91t8viU-3" target="w7AsBhVoFl4Xi_suDUbh-2">
          <mxGeometry relative="1" as="geometry" />
        </mxCell>
        <mxCell id="QXobtDgoVljrmMvmmqzc-14" style="edgeStyle=orthogonalEdgeStyle;rounded=0;orthogonalLoop=1;jettySize=auto;html=1;exitX=0.5;exitY=1;exitDx=0;exitDy=0;entryX=0.7;entryY=-0.033;entryDx=0;entryDy=0;entryPerimeter=0;" edge="1" parent="1" source="QXobtDgoVljrmMvmmqzc-6" target="z0u4Ed4zm8lamCGDg6do-4">
          <mxGeometry relative="1" as="geometry" />
        </mxCell>
        <mxCell id="QXobtDgoVljrmMvmmqzc-20" value="" style="group" vertex="1" connectable="0" parent="1">
          <mxGeometry x="580" y="35" width="120" height="60" as="geometry" />
        </mxCell>
        <mxCell id="QXobtDgoVljrmMvmmqzc-18" value="" style="rounded=1;whiteSpace=wrap;html=1;" vertex="1" parent="QXobtDgoVljrmMvmmqzc-20">
          <mxGeometry width="120" height="60" as="geometry" />
        </mxCell>
        <mxCell id="QXobtDgoVljrmMvmmqzc-19" value="&lt;font style=&quot;font-size: 15px;&quot;&gt;Consul&lt;/font&gt;" style="text;html=1;align=center;verticalAlign=middle;whiteSpace=wrap;rounded=0;" vertex="1" parent="QXobtDgoVljrmMvmmqzc-20">
          <mxGeometry x="25" y="10" width="70" height="40" as="geometry" />
        </mxCell>
        <mxCell id="QXobtDgoVljrmMvmmqzc-21" style="edgeStyle=orthogonalEdgeStyle;rounded=0;orthogonalLoop=1;jettySize=auto;html=1;exitX=1;exitY=0.5;exitDx=0;exitDy=0;strokeColor=#FF6666;" edge="1" parent="1" source="QXobtDgoVljrmMvmmqzc-15" target="QXobtDgoVljrmMvmmqzc-18">
          <mxGeometry relative="1" as="geometry" />
        </mxCell>
        <mxCell id="QXobtDgoVljrmMvmmqzc-8" value="" style="rounded=0;whiteSpace=wrap;html=1;movable=1;resizable=1;rotatable=1;deletable=1;editable=1;locked=0;connectable=1;container=0;" vertex="1" parent="1">
          <mxGeometry x="340" y="5" width="140" height="90" as="geometry" />
        </mxCell>
        <mxCell id="QXobtDgoVljrmMvmmqzc-13" value="APISIX gateway" style="text;html=1;align=center;verticalAlign=middle;whiteSpace=wrap;rounded=0;movable=1;resizable=1;rotatable=1;deletable=1;editable=1;locked=0;connectable=1;container=0;" vertex="1" parent="1">
          <mxGeometry x="380" y="5" width="60" height="30" as="geometry" />
        </mxCell>
        <mxCell id="QXobtDgoVljrmMvmmqzc-15" value="" style="rounded=1;whiteSpace=wrap;html=1;movable=1;resizable=1;rotatable=1;deletable=1;editable=1;locked=0;connectable=1;container=0;" vertex="1" parent="1">
          <mxGeometry x="405" y="50" width="90" height="30" as="geometry" />
        </mxCell>
        <mxCell id="QXobtDgoVljrmMvmmqzc-17" value="consul_kv" style="text;html=1;align=center;verticalAlign=middle;whiteSpace=wrap;rounded=0;movable=1;resizable=1;rotatable=1;deletable=1;editable=1;locked=0;connectable=1;container=0;" vertex="1" parent="1">
          <mxGeometry x="422.5" y="50" width="60" height="30" as="geometry" />
        </mxCell>
        <mxCell id="QXobtDgoVljrmMvmmqzc-22" style="edgeStyle=orthogonalEdgeStyle;rounded=0;orthogonalLoop=1;jettySize=auto;html=1;exitX=0.75;exitY=1;exitDx=0;exitDy=0;entryX=0.358;entryY=0.022;entryDx=0;entryDy=0;entryPerimeter=0;strokeColor=#FF6666;" edge="1" parent="1" source="QXobtDgoVljrmMvmmqzc-8" target="zA23MoTUsTF4_91t8viU-3">
          <mxGeometry relative="1" as="geometry" />
        </mxCell>
        <mxCell id="QXobtDgoVljrmMvmmqzc-23" style="edgeStyle=orthogonalEdgeStyle;rounded=0;orthogonalLoop=1;jettySize=auto;html=1;exitX=1;exitY=0.25;exitDx=0;exitDy=0;entryX=0.5;entryY=1;entryDx=0;entryDy=0;" edge="1" parent="1" source="QXobtDgoVljrmMvmmqzc-5" target="QXobtDgoVljrmMvmmqzc-18">
          <mxGeometry relative="1" as="geometry" />
        </mxCell>
        <mxCell id="QXobtDgoVljrmMvmmqzc-27" style="edgeStyle=orthogonalEdgeStyle;rounded=0;orthogonalLoop=1;jettySize=auto;html=1;exitX=0.75;exitY=1;exitDx=0;exitDy=0;strokeColor=#FF6666;" edge="1" parent="1">
          <mxGeometry relative="1" as="geometry">
            <mxPoint x="201.5" y="740" as="sourcePoint" />
            <mxPoint x="240" y="740" as="targetPoint" />
          </mxGeometry>
        </mxCell>
        <mxCell id="QXobtDgoVljrmMvmmqzc-28" value="Вызовы с API gateway" style="text;html=1;align=center;verticalAlign=middle;resizable=0;points=[];autosize=1;strokeColor=none;fillColor=none;" vertex="1" parent="1">
          <mxGeometry x="230" y="725" width="150" height="30" as="geometry" />
        </mxCell>
        <mxCell id="QXobtDgoVljrmMvmmqzc-29" style="edgeStyle=orthogonalEdgeStyle;rounded=0;orthogonalLoop=1;jettySize=auto;html=1;strokeColor=#33FF99;" edge="1" parent="1">
          <mxGeometry relative="1" as="geometry">
            <mxPoint x="200" y="760" as="sourcePoint" />
            <mxPoint x="240" y="760" as="targetPoint" />
          </mxGeometry>
        </mxCell>
        <mxCell id="QXobtDgoVljrmMvmmqzc-30" value="Вызовы БД" style="text;html=1;align=center;verticalAlign=middle;resizable=0;points=[];autosize=1;strokeColor=none;fillColor=none;" vertex="1" parent="1">
          <mxGeometry x="230" y="745" width="90" height="30" as="geometry" />
        </mxCell>
        <mxCell id="QXobtDgoVljrmMvmmqzc-31" style="edgeStyle=orthogonalEdgeStyle;rounded=0;orthogonalLoop=1;jettySize=auto;html=1;exitX=0.75;exitY=1;exitDx=0;exitDy=0;strokeColor=#000000;" edge="1" parent="1">
          <mxGeometry relative="1" as="geometry">
            <mxPoint x="201.5" y="777" as="sourcePoint" />
            <mxPoint x="240" y="777" as="targetPoint" />
          </mxGeometry>
        </mxCell>
        <mxCell id="QXobtDgoVljrmMvmmqzc-32" value="Вызовы сервисов" style="text;html=1;align=center;verticalAlign=middle;resizable=0;points=[];autosize=1;strokeColor=none;fillColor=none;" vertex="1" parent="1">
          <mxGeometry x="233" y="762" width="120" height="30" as="geometry" />
        </mxCell>
        <mxCell id="QXobtDgoVljrmMvmmqzc-33" value="DNS" style="ellipse;whiteSpace=wrap;html=1;aspect=fixed;" vertex="1" parent="1">
          <mxGeometry x="470" y="-280" width="80" height="80" as="geometry" />
        </mxCell>
        <mxCell id="QXobtDgoVljrmMvmmqzc-35" value="" style="edgeStyle=orthogonalEdgeStyle;rounded=0;orthogonalLoop=1;jettySize=auto;html=1;strokeColor=#66B2FF;" edge="1" parent="1" source="QXobtDgoVljrmMvmmqzc-34" target="QXobtDgoVljrmMvmmqzc-33">
          <mxGeometry relative="1" as="geometry">
            <Array as="points">
              <mxPoint x="490" y="-370" />
            </Array>
          </mxGeometry>
        </mxCell>
        <mxCell id="QXobtDgoVljrmMvmmqzc-34" value="User" style="shape=umlActor;verticalLabelPosition=bottom;verticalAlign=top;html=1;outlineConnect=0;" vertex="1" parent="1">
          <mxGeometry x="430" y="-400" width="30" height="60" as="geometry" />
        </mxCell>
        <mxCell id="QXobtDgoVljrmMvmmqzc-37" value="" style="edgeStyle=orthogonalEdgeStyle;rounded=0;orthogonalLoop=1;jettySize=auto;html=1;strokeColor=#66B2FF;" edge="1" parent="1" source="QXobtDgoVljrmMvmmqzc-36" target="QXobtDgoVljrmMvmmqzc-33">
          <mxGeometry relative="1" as="geometry">
            <Array as="points">
              <mxPoint x="510" y="-370" />
            </Array>
          </mxGeometry>
        </mxCell>
        <mxCell id="QXobtDgoVljrmMvmmqzc-36" value="User&lt;div&gt;&lt;br&gt;&lt;/div&gt;" style="shape=umlActor;verticalLabelPosition=bottom;verticalAlign=top;html=1;outlineConnect=0;" vertex="1" parent="1">
          <mxGeometry x="540" y="-400" width="30" height="60" as="geometry" />
        </mxCell>
        <mxCell id="QXobtDgoVljrmMvmmqzc-40" value="CDN" style="shape=cylinder3;whiteSpace=wrap;html=1;boundedLbl=1;backgroundOutline=1;size=15;" vertex="1" parent="1">
          <mxGeometry x="280" y="-140" width="60" height="80" as="geometry" />
        </mxCell>
        <mxCell id="QXobtDgoVljrmMvmmqzc-42" value="CDN" style="shape=cylinder3;whiteSpace=wrap;html=1;boundedLbl=1;backgroundOutline=1;size=15;" vertex="1" parent="1">
          <mxGeometry x="660" y="-140" width="60" height="80" as="geometry" />
        </mxCell>
        <mxCell id="QXobtDgoVljrmMvmmqzc-43" style="edgeStyle=orthogonalEdgeStyle;rounded=0;orthogonalLoop=1;jettySize=auto;html=1;exitX=0;exitY=0.5;exitDx=0;exitDy=0;entryX=0.5;entryY=0;entryDx=0;entryDy=0;entryPerimeter=0;strokeColor=#66B2FF;" edge="1" parent="1" source="QXobtDgoVljrmMvmmqzc-33" target="QXobtDgoVljrmMvmmqzc-40">
          <mxGeometry relative="1" as="geometry" />
        </mxCell>
        <mxCell id="QXobtDgoVljrmMvmmqzc-44" style="edgeStyle=orthogonalEdgeStyle;rounded=0;orthogonalLoop=1;jettySize=auto;html=1;exitX=1;exitY=0.5;exitDx=0;exitDy=0;entryX=0.5;entryY=0;entryDx=0;entryDy=0;entryPerimeter=0;strokeColor=#66B2FF;" edge="1" parent="1" source="QXobtDgoVljrmMvmmqzc-33" target="QXobtDgoVljrmMvmmqzc-42">
          <mxGeometry relative="1" as="geometry" />
        </mxCell>
        <mxCell id="QXobtDgoVljrmMvmmqzc-45" style="edgeStyle=orthogonalEdgeStyle;rounded=0;orthogonalLoop=1;jettySize=auto;html=1;exitX=0.5;exitY=1;exitDx=0;exitDy=0;entryX=0.88;entryY=0.022;entryDx=0;entryDy=0;entryPerimeter=0;strokeColor=#66B2FF;" edge="1" parent="1" source="QXobtDgoVljrmMvmmqzc-33" target="QXobtDgoVljrmMvmmqzc-8">
          <mxGeometry relative="1" as="geometry" />
        </mxCell>
        <mxCell id="QXobtDgoVljrmMvmmqzc-46" style="edgeStyle=orthogonalEdgeStyle;rounded=0;orthogonalLoop=1;jettySize=auto;html=1;exitX=1;exitY=0.5;exitDx=0;exitDy=0;strokeColor=#66B2FF;" edge="1" parent="1">
          <mxGeometry relative="1" as="geometry">
            <mxPoint x="201.47" y="795" as="sourcePoint" />
            <mxPoint x="240" y="795" as="targetPoint" />
          </mxGeometry>
        </mxCell>
        <mxCell id="QXobtDgoVljrmMvmmqzc-47" value="Запросы от пользователей в сети" style="text;html=1;align=center;verticalAlign=middle;resizable=0;points=[];autosize=1;strokeColor=none;fillColor=none;" vertex="1" parent="1">
          <mxGeometry x="230" y="780" width="220" height="30" as="geometry" />
        </mxCell>
      </root>
    </mxGraphModel>
  </diagram>
</mxfile>
